<svg width="24" height="24" viewBox="0 0 24 24" fill="none" xmlns="http://www.w3.org/2000/svg">
<path fill-rule="evenodd" clip-rule="evenodd" d="M18.3359 5.6611L21.0079 2.9891H14.0079V9.9891L16.9259 7.0701C17.5289 7.6661 18.0319 8.3691 18.3899 9.1721C18.7879 10.0661 18.9889 11.0191 18.9889 12.0071C18.9889 15.8541 15.8589 18.9841 12.0129 18.9841C8.16589 18.9841 5.03589 15.8541 5.03589 12.0071C5.03589 8.5051 7.63289 5.6051 10.9999 5.1121V3.0921C6.52589 3.5971 3.03589 7.4001 3.03589 12.0071C3.03589 16.9571 7.06389 20.9841 12.0129 20.9841C16.9619 20.9841 20.9889 16.9571 20.9889 12.0071C20.9889 10.7381 20.7299 9.5111 20.2169 8.3591C19.7579 7.3281 19.1099 6.4251 18.3359 5.6611Z" fill="white"/>
</svg>
